<svg xmlns="http://www.w3.org/2000/svg" xmlns:xlink="http://www.w3.org/1999/xlink" width="50" zoomAndPan="magnify" viewBox="0 0 37.5 30.000001" height="40" preserveAspectRatio="xMidYMid meet" version="1.0"><defs><clipPath id="c439c63c60"><path d="M 0.363281 7.09375 L 36.652344 7.09375 L 36.652344 21.609375 L 0.363281 21.609375 Z M 0.363281 7.09375 " clip-rule="nonzero"/></clipPath></defs><g clip-path="url(#c439c63c60)"><path fill="#6772e5" d="M 36.351562 14.621094 C 36.351562 12.136719 35.121094 10.179688 32.769531 10.179688 C 30.410156 10.179688 28.980469 12.136719 28.980469 14.601562 C 28.980469 17.523438 30.667969 18.996094 33.085938 18.996094 C 34.269531 18.996094 35.160156 18.734375 35.835938 18.367188 L 35.835938 16.425781 C 35.160156 16.753906 34.386719 16.957031 33.40625 16.957031 C 32.441406 16.957031 31.589844 16.628906 31.480469 15.484375 L 36.332031 15.484375 C 36.332031 15.359375 36.351562 14.855469 36.351562 14.621094 Z M 31.453125 13.699219 C 31.453125 12.605469 32.140625 12.148438 32.765625 12.148438 C 33.367188 12.148438 34.015625 12.605469 34.015625 13.699219 Z M 25.15625 10.179688 C 24.183594 10.179688 23.558594 10.625 23.210938 10.933594 L 23.082031 10.332031 L 20.894531 10.332031 L 20.894531 21.644531 L 23.375 21.132812 L 23.382812 18.386719 C 23.742188 18.636719 24.265625 18.996094 25.140625 18.996094 C 26.917969 18.996094 28.535156 17.605469 28.535156 14.523438 C 28.523438 11.710938 26.886719 10.179688 25.148438 10.179688 Z M 24.558594 16.863281 C 23.972656 16.863281 23.628906 16.660156 23.390625 16.40625 L 23.378906 12.808594 C 23.636719 12.527344 23.992188 12.332031 24.558594 12.332031 C 25.460938 12.332031 26.085938 13.320312 26.085938 14.59375 C 26.085938 15.890625 25.472656 16.863281 24.558594 16.863281 Z M 17.480469 9.605469 L 19.972656 9.082031 L 19.972656 7.113281 L 17.480469 7.628906 Z M 17.480469 10.34375 L 19.972656 10.34375 L 19.972656 18.832031 L 17.480469 18.832031 Z M 14.8125 11.0625 L 14.65625 10.34375 L 12.511719 10.34375 L 12.511719 18.832031 L 14.992188 18.832031 L 14.992188 13.078125 C 15.578125 12.332031 16.570312 12.46875 16.875 12.574219 L 16.875 10.34375 C 16.558594 10.226562 15.398438 10.015625 14.8125 11.0625 Z M 9.851562 8.234375 L 7.433594 8.738281 L 7.421875 16.507812 C 7.421875 17.945312 8.523438 19.003906 9.992188 19.003906 C 10.804688 19.003906 11.402344 18.855469 11.726562 18.679688 L 11.726562 16.710938 C 11.410156 16.839844 9.84375 17.285156 9.84375 15.847656 L 9.84375 12.410156 L 11.726562 12.410156 L 11.726562 10.34375 L 9.84375 10.34375 Z M 3.148438 12.804688 C 3.148438 12.425781 3.464844 12.28125 3.988281 12.28125 C 4.859375 12.296875 5.679688 12.503906 6.449219 12.898438 L 6.449219 10.625 C 5.625 10.304688 4.8125 10.179688 3.988281 10.179688 C 1.976562 10.179688 0.636719 11.207031 0.636719 12.925781 C 0.636719 15.601562 4.40625 15.175781 4.40625 16.328125 C 4.40625 16.777344 4.011719 16.921875 3.453125 16.921875 C 2.632812 16.921875 1.578125 16.589844 0.746094 16.144531 L 0.746094 18.453125 C 1.667969 18.839844 2.601562 19 3.453125 19 C 5.519531 19 6.9375 18.003906 6.9375 16.265625 C 6.925781 13.375 3.148438 13.890625 3.148438 12.804688 Z M 3.148438 12.804688 " fill-opacity="1" fill-rule="evenodd"/></g></svg>